%TF.GenerationSoftware,KiCad,Pcbnew,9.0.0*%
%TF.CreationDate,2026-05-25T00:25:35+02:00*%
%TF.ProjectId,Fast_Passive_Probe_20x,46617374-5f50-4617-9373-6976655f5072,rev?*%
%TF.SameCoordinates,Original*%
%TF.FileFunction,Legend,Top*%
%TF.FilePolarity,Positive*%
%FSLAX46Y46*%
G04 Gerber Fmt 4.6, Leading zero omitted, Abs format (unit mm)*
G04 Created by KiCad (PCBNEW 9.0.0) date 2026-05-25 00:25:35*
%MOMM*%
%LPD*%
G01*
G04 APERTURE LIST*
%ADD10C,0.150000*%
%ADD11C,0.120000*%
G04 APERTURE END LIST*
D10*
X134666666Y-77954819D02*
X134666666Y-78669104D01*
X134666666Y-78669104D02*
X134619047Y-78811961D01*
X134619047Y-78811961D02*
X134523809Y-78907200D01*
X134523809Y-78907200D02*
X134380952Y-78954819D01*
X134380952Y-78954819D02*
X134285714Y-78954819D01*
X135666666Y-78954819D02*
X135095238Y-78954819D01*
X135380952Y-78954819D02*
X135380952Y-77954819D01*
X135380952Y-77954819D02*
X135285714Y-78097676D01*
X135285714Y-78097676D02*
X135190476Y-78192914D01*
X135190476Y-78192914D02*
X135095238Y-78240533D01*
X101766666Y-88534819D02*
X101766666Y-89249104D01*
X101766666Y-89249104D02*
X101719047Y-89391961D01*
X101719047Y-89391961D02*
X101623809Y-89487200D01*
X101623809Y-89487200D02*
X101480952Y-89534819D01*
X101480952Y-89534819D02*
X101385714Y-89534819D01*
X102195238Y-88630057D02*
X102242857Y-88582438D01*
X102242857Y-88582438D02*
X102338095Y-88534819D01*
X102338095Y-88534819D02*
X102576190Y-88534819D01*
X102576190Y-88534819D02*
X102671428Y-88582438D01*
X102671428Y-88582438D02*
X102719047Y-88630057D01*
X102719047Y-88630057D02*
X102766666Y-88725295D01*
X102766666Y-88725295D02*
X102766666Y-88820533D01*
X102766666Y-88820533D02*
X102719047Y-88963390D01*
X102719047Y-88963390D02*
X102147619Y-89534819D01*
X102147619Y-89534819D02*
X102766666Y-89534819D01*
X133263333Y-83199580D02*
X133215714Y-83247200D01*
X133215714Y-83247200D02*
X133072857Y-83294819D01*
X133072857Y-83294819D02*
X132977619Y-83294819D01*
X132977619Y-83294819D02*
X132834762Y-83247200D01*
X132834762Y-83247200D02*
X132739524Y-83151961D01*
X132739524Y-83151961D02*
X132691905Y-83056723D01*
X132691905Y-83056723D02*
X132644286Y-82866247D01*
X132644286Y-82866247D02*
X132644286Y-82723390D01*
X132644286Y-82723390D02*
X132691905Y-82532914D01*
X132691905Y-82532914D02*
X132739524Y-82437676D01*
X132739524Y-82437676D02*
X132834762Y-82342438D01*
X132834762Y-82342438D02*
X132977619Y-82294819D01*
X132977619Y-82294819D02*
X133072857Y-82294819D01*
X133072857Y-82294819D02*
X133215714Y-82342438D01*
X133215714Y-82342438D02*
X133263333Y-82390057D01*
X134215714Y-83294819D02*
X133644286Y-83294819D01*
X133930000Y-83294819D02*
X133930000Y-82294819D01*
X133930000Y-82294819D02*
X133834762Y-82437676D01*
X133834762Y-82437676D02*
X133739524Y-82532914D01*
X133739524Y-82532914D02*
X133644286Y-82580533D01*
X124333333Y-83284819D02*
X124000000Y-82808628D01*
X123761905Y-83284819D02*
X123761905Y-82284819D01*
X123761905Y-82284819D02*
X124142857Y-82284819D01*
X124142857Y-82284819D02*
X124238095Y-82332438D01*
X124238095Y-82332438D02*
X124285714Y-82380057D01*
X124285714Y-82380057D02*
X124333333Y-82475295D01*
X124333333Y-82475295D02*
X124333333Y-82618152D01*
X124333333Y-82618152D02*
X124285714Y-82713390D01*
X124285714Y-82713390D02*
X124238095Y-82761009D01*
X124238095Y-82761009D02*
X124142857Y-82808628D01*
X124142857Y-82808628D02*
X123761905Y-82808628D01*
X125285714Y-83284819D02*
X124714286Y-83284819D01*
X125000000Y-83284819D02*
X125000000Y-82284819D01*
X125000000Y-82284819D02*
X124904762Y-82427676D01*
X124904762Y-82427676D02*
X124809524Y-82522914D01*
X124809524Y-82522914D02*
X124714286Y-82570533D01*
X128833333Y-83284819D02*
X128500000Y-82808628D01*
X128261905Y-83284819D02*
X128261905Y-82284819D01*
X128261905Y-82284819D02*
X128642857Y-82284819D01*
X128642857Y-82284819D02*
X128738095Y-82332438D01*
X128738095Y-82332438D02*
X128785714Y-82380057D01*
X128785714Y-82380057D02*
X128833333Y-82475295D01*
X128833333Y-82475295D02*
X128833333Y-82618152D01*
X128833333Y-82618152D02*
X128785714Y-82713390D01*
X128785714Y-82713390D02*
X128738095Y-82761009D01*
X128738095Y-82761009D02*
X128642857Y-82808628D01*
X128642857Y-82808628D02*
X128261905Y-82808628D01*
X129214286Y-82380057D02*
X129261905Y-82332438D01*
X129261905Y-82332438D02*
X129357143Y-82284819D01*
X129357143Y-82284819D02*
X129595238Y-82284819D01*
X129595238Y-82284819D02*
X129690476Y-82332438D01*
X129690476Y-82332438D02*
X129738095Y-82380057D01*
X129738095Y-82380057D02*
X129785714Y-82475295D01*
X129785714Y-82475295D02*
X129785714Y-82570533D01*
X129785714Y-82570533D02*
X129738095Y-82713390D01*
X129738095Y-82713390D02*
X129166667Y-83284819D01*
X129166667Y-83284819D02*
X129785714Y-83284819D01*
D11*
%TO.C,J2*%
X100560000Y-82050000D02*
X100560000Y-83160000D01*
X100560000Y-84840000D02*
X100560000Y-85950000D01*
X103810000Y-82050000D02*
X103810000Y-83160000D01*
X103810000Y-84840000D02*
X103810000Y-85950000D01*
X104360000Y-84000000D02*
X104860000Y-84250000D01*
X104860000Y-83750000D02*
X104360000Y-84000000D01*
X104860000Y-84250000D02*
X104860000Y-83750000D01*
%TO.C,C1*%
X133314165Y-83640000D02*
X133545835Y-83640000D01*
X133314165Y-84360000D02*
X133545835Y-84360000D01*
%TO.C,R1*%
X124332379Y-83620000D02*
X124667621Y-83620000D01*
X124332379Y-84380000D02*
X124667621Y-84380000D01*
%TO.C,R2*%
X128832379Y-83620000D02*
X129167621Y-83620000D01*
X128832379Y-84380000D02*
X129167621Y-84380000D01*
%TD*%
M02*
