%TF.GenerationSoftware,KiCad,Pcbnew,9.0.0*%
%TF.CreationDate,2026-05-25T00:25:35+02:00*%
%TF.ProjectId,Fast_Passive_Probe_20x,46617374-5f50-4617-9373-6976655f5072,rev?*%
%TF.SameCoordinates,Original*%
%TF.FileFunction,Copper,L2,Inr*%
%TF.FilePolarity,Positive*%
%FSLAX46Y46*%
G04 Gerber Fmt 4.6, Leading zero omitted, Abs format (unit mm)*
G04 Created by KiCad (PCBNEW 9.0.0) date 2026-05-25 00:25:35*
%MOMM*%
%LPD*%
G01*
G04 APERTURE LIST*
%TA.AperFunction,ComponentPad*%
%ADD10O,2.500000X1.600000*%
%TD*%
%TA.AperFunction,ComponentPad*%
%ADD11O,7.000000X3.500000*%
%TD*%
%TA.AperFunction,ComponentPad*%
%ADD12C,3.800000*%
%TD*%
%TA.AperFunction,ViaPad*%
%ADD13C,0.600000*%
%TD*%
G04 APERTURE END LIST*
D10*
%TO.N,Net-(J1-In)*%
%TO.C,J1*%
X137550000Y-84000000D03*
D11*
%TO.N,GND*%
X145350000Y-80200000D03*
X145350000Y-87800000D03*
%TD*%
D12*
%TO.N,GND*%
%TO.C,H3*%
X107000000Y-79000000D03*
%TD*%
%TO.N,GND*%
%TO.C,H4*%
X138500000Y-89000000D03*
%TD*%
D13*
%TO.N,GND*%
X130000000Y-90000000D03*
X130000000Y-86000000D03*
X127000000Y-76500000D03*
X112000000Y-80000000D03*
X104800000Y-81600000D03*
X132000000Y-80000000D03*
X124000000Y-88000000D03*
X133000000Y-91500000D03*
X145000000Y-76500000D03*
X116000000Y-80000000D03*
X110000000Y-86000000D03*
X104000000Y-88000000D03*
X149000000Y-85000000D03*
X149000000Y-91500000D03*
X147000000Y-91500000D03*
X123000000Y-91500000D03*
X102600000Y-80000000D03*
X101000000Y-91500000D03*
X139000000Y-76500000D03*
X127000000Y-91500000D03*
X143000000Y-76500000D03*
X101200000Y-82400000D03*
X135000000Y-91500000D03*
X138000000Y-78000000D03*
X124000000Y-80000000D03*
X118000000Y-78000000D03*
X115000000Y-91500000D03*
X128000000Y-80000000D03*
X130000000Y-82000000D03*
X102600000Y-82400000D03*
X134000000Y-82000000D03*
X141000000Y-76500000D03*
X118000000Y-86000000D03*
X114000000Y-90000000D03*
X106000000Y-82000000D03*
X111000000Y-76500000D03*
X134000000Y-90000000D03*
X136000000Y-88000000D03*
X138000000Y-86000000D03*
X134000000Y-78000000D03*
X122000000Y-82000000D03*
X147000000Y-76500000D03*
X107000000Y-76500000D03*
X109500000Y-80500000D03*
X106000000Y-90000000D03*
X145000000Y-91500000D03*
X110000000Y-82000000D03*
X114000000Y-82000000D03*
X149000000Y-76500000D03*
X110000000Y-78000000D03*
X105000000Y-76500000D03*
X126000000Y-82000000D03*
X111000000Y-91500000D03*
X122000000Y-90000000D03*
X118000000Y-82000000D03*
X109000000Y-76500000D03*
X149000000Y-81000000D03*
X102000000Y-90000000D03*
X119000000Y-91500000D03*
X140000000Y-87000000D03*
X104000000Y-85600000D03*
X117000000Y-91500000D03*
X119000000Y-76500000D03*
X133000000Y-76500000D03*
X134000000Y-86000000D03*
X101200000Y-85600000D03*
X146000000Y-86000000D03*
X101200000Y-88000000D03*
X149000000Y-89000000D03*
X129000000Y-76500000D03*
X149000000Y-83000000D03*
X123000000Y-76500000D03*
X103000000Y-78000000D03*
X126000000Y-90000000D03*
X114000000Y-86000000D03*
X115000000Y-76500000D03*
X135000000Y-76500000D03*
X117000000Y-76500000D03*
X118000000Y-90000000D03*
X120000000Y-80000000D03*
X146000000Y-78000000D03*
X101000000Y-78000000D03*
X149000000Y-79000000D03*
X101000000Y-89500000D03*
X106000000Y-86000000D03*
X140000000Y-80000000D03*
X125000000Y-91500000D03*
X128000000Y-88000000D03*
X110000000Y-90000000D03*
X132000000Y-88000000D03*
X142000000Y-90000000D03*
X142000000Y-86000000D03*
X113000000Y-76500000D03*
X109000000Y-91500000D03*
X137000000Y-91500000D03*
X102600000Y-88000000D03*
X126000000Y-78000000D03*
X121000000Y-76500000D03*
X143000000Y-91500000D03*
X103000000Y-76500000D03*
X114000000Y-78000000D03*
X104800000Y-80800000D03*
X107000000Y-91500000D03*
X125000000Y-76500000D03*
X126000000Y-86000000D03*
X116000000Y-88000000D03*
X130000000Y-78000000D03*
X104800000Y-87400000D03*
X146000000Y-82000000D03*
X137000000Y-76500000D03*
X101000000Y-76500000D03*
X102600000Y-85600000D03*
X104000000Y-80000000D03*
X136000000Y-80000000D03*
X113000000Y-91500000D03*
X104000000Y-82400000D03*
X112000000Y-88000000D03*
X129000000Y-91500000D03*
X122000000Y-78000000D03*
X101200000Y-80000000D03*
X122000000Y-86000000D03*
X142000000Y-82000000D03*
X105000000Y-91500000D03*
X136000000Y-90500000D03*
X121000000Y-91500000D03*
X131000000Y-91500000D03*
X120000000Y-88000000D03*
X103000000Y-91500000D03*
X142000000Y-78000000D03*
X141000000Y-91500000D03*
X149000000Y-87000000D03*
X108000000Y-88000000D03*
X131000000Y-76500000D03*
X104800000Y-86400000D03*
X138000000Y-82000000D03*
X139000000Y-91500000D03*
%TD*%
%TA.AperFunction,Conductor*%
%TO.N,GND*%
G36*
X148505394Y-76000972D02*
G01*
X148535721Y-76003625D01*
X148662755Y-76014739D01*
X148684035Y-76018491D01*
X148801188Y-76049882D01*
X148831369Y-76057969D01*
X148851681Y-76065362D01*
X148989915Y-76129822D01*
X149008633Y-76140629D01*
X149133582Y-76228119D01*
X149150140Y-76242013D01*
X149257986Y-76349859D01*
X149271880Y-76366417D01*
X149359370Y-76491366D01*
X149370177Y-76510084D01*
X149434637Y-76648318D01*
X149442030Y-76668630D01*
X149481507Y-76815961D01*
X149485260Y-76837246D01*
X149499028Y-76994605D01*
X149499500Y-77005413D01*
X149499500Y-90994586D01*
X149499028Y-91005393D01*
X149499028Y-91005394D01*
X149485260Y-91162753D01*
X149481507Y-91184038D01*
X149442030Y-91331369D01*
X149434637Y-91351681D01*
X149370177Y-91489915D01*
X149359370Y-91508633D01*
X149271880Y-91633582D01*
X149257986Y-91650140D01*
X149150140Y-91757986D01*
X149133582Y-91771880D01*
X149008633Y-91859370D01*
X148989915Y-91870177D01*
X148851681Y-91934637D01*
X148831369Y-91942030D01*
X148684038Y-91981507D01*
X148662753Y-91985260D01*
X148505395Y-91999028D01*
X148494587Y-91999500D01*
X101505413Y-91999500D01*
X101494605Y-91999028D01*
X101337246Y-91985260D01*
X101315961Y-91981507D01*
X101168630Y-91942030D01*
X101148318Y-91934637D01*
X101010084Y-91870177D01*
X100991366Y-91859370D01*
X100866417Y-91771880D01*
X100849859Y-91757986D01*
X100742013Y-91650140D01*
X100728119Y-91633582D01*
X100640629Y-91508633D01*
X100629822Y-91489915D01*
X100565362Y-91351681D01*
X100557969Y-91331369D01*
X100518492Y-91184038D01*
X100514739Y-91162752D01*
X100500972Y-91005393D01*
X100500500Y-90994586D01*
X100500500Y-83888549D01*
X135399500Y-83888549D01*
X135399500Y-84111450D01*
X135399501Y-84111466D01*
X135428594Y-84332452D01*
X135428595Y-84332457D01*
X135428596Y-84332463D01*
X135428597Y-84332465D01*
X135486290Y-84547780D01*
X135486293Y-84547790D01*
X135571593Y-84753722D01*
X135571595Y-84753726D01*
X135683052Y-84946774D01*
X135683057Y-84946780D01*
X135683058Y-84946782D01*
X135818751Y-85123622D01*
X135818757Y-85123629D01*
X135976370Y-85281242D01*
X135976376Y-85281247D01*
X136153226Y-85416948D01*
X136346274Y-85528405D01*
X136552219Y-85613710D01*
X136767537Y-85671404D01*
X136988543Y-85700500D01*
X136988550Y-85700500D01*
X138111450Y-85700500D01*
X138111457Y-85700500D01*
X138332463Y-85671404D01*
X138547781Y-85613710D01*
X138753726Y-85528405D01*
X138946774Y-85416948D01*
X139123624Y-85281247D01*
X139281247Y-85123624D01*
X139416948Y-84946774D01*
X139528405Y-84753726D01*
X139613710Y-84547781D01*
X139671404Y-84332463D01*
X139700500Y-84111457D01*
X139700500Y-83888543D01*
X139671404Y-83667537D01*
X139613710Y-83452219D01*
X139528405Y-83246274D01*
X139416948Y-83053226D01*
X139281247Y-82876376D01*
X139281242Y-82876370D01*
X139123629Y-82718757D01*
X139123622Y-82718751D01*
X138946782Y-82583058D01*
X138946780Y-82583057D01*
X138946774Y-82583052D01*
X138753726Y-82471595D01*
X138753722Y-82471593D01*
X138547790Y-82386293D01*
X138547783Y-82386291D01*
X138547781Y-82386290D01*
X138332463Y-82328596D01*
X138332457Y-82328595D01*
X138332452Y-82328594D01*
X138111466Y-82299501D01*
X138111463Y-82299500D01*
X138111457Y-82299500D01*
X136988543Y-82299500D01*
X136988537Y-82299500D01*
X136988533Y-82299501D01*
X136767547Y-82328594D01*
X136767540Y-82328595D01*
X136767537Y-82328596D01*
X136552219Y-82386290D01*
X136552209Y-82386293D01*
X136346277Y-82471593D01*
X136346273Y-82471595D01*
X136153226Y-82583052D01*
X136153217Y-82583058D01*
X135976377Y-82718751D01*
X135976370Y-82718757D01*
X135818757Y-82876370D01*
X135818751Y-82876377D01*
X135683058Y-83053217D01*
X135683052Y-83053226D01*
X135571595Y-83246273D01*
X135571593Y-83246277D01*
X135486293Y-83452209D01*
X135486290Y-83452219D01*
X135428597Y-83667534D01*
X135428594Y-83667547D01*
X135399501Y-83888533D01*
X135399500Y-83888549D01*
X100500500Y-83888549D01*
X100500500Y-77005413D01*
X100500972Y-76994606D01*
X100506265Y-76934108D01*
X100514739Y-76837240D01*
X100518490Y-76815966D01*
X100557969Y-76668627D01*
X100565362Y-76648318D01*
X100629823Y-76510081D01*
X100640629Y-76491366D01*
X100728119Y-76366417D01*
X100742007Y-76349865D01*
X100849865Y-76242007D01*
X100866417Y-76228119D01*
X100991366Y-76140629D01*
X101010081Y-76129823D01*
X101148320Y-76065361D01*
X101168627Y-76057969D01*
X101315966Y-76018490D01*
X101337242Y-76014739D01*
X101469885Y-76003134D01*
X101494606Y-76000972D01*
X101505413Y-76000500D01*
X101565892Y-76000500D01*
X148434108Y-76000500D01*
X148494587Y-76000500D01*
X148505394Y-76000972D01*
G37*
%TD.AperFunction*%
%TD*%
%TA.AperFunction,Conductor*%
%TO.N,GND*%
G36*
X148505394Y-76000972D02*
G01*
X148535721Y-76003625D01*
X148662755Y-76014739D01*
X148684035Y-76018491D01*
X148801188Y-76049882D01*
X148831369Y-76057969D01*
X148851681Y-76065362D01*
X148989915Y-76129822D01*
X149008633Y-76140629D01*
X149133582Y-76228119D01*
X149150140Y-76242013D01*
X149257986Y-76349859D01*
X149271880Y-76366417D01*
X149359370Y-76491366D01*
X149370177Y-76510084D01*
X149434637Y-76648318D01*
X149442030Y-76668630D01*
X149481507Y-76815961D01*
X149485260Y-76837246D01*
X149499028Y-76994605D01*
X149499500Y-77005413D01*
X149499500Y-90994586D01*
X149499028Y-91005393D01*
X149499028Y-91005394D01*
X149485260Y-91162753D01*
X149481507Y-91184038D01*
X149442030Y-91331369D01*
X149434637Y-91351681D01*
X149370177Y-91489915D01*
X149359370Y-91508633D01*
X149271880Y-91633582D01*
X149257986Y-91650140D01*
X149150140Y-91757986D01*
X149133582Y-91771880D01*
X149008633Y-91859370D01*
X148989915Y-91870177D01*
X148851681Y-91934637D01*
X148831369Y-91942030D01*
X148684038Y-91981507D01*
X148662753Y-91985260D01*
X148505395Y-91999028D01*
X148494587Y-91999500D01*
X101505413Y-91999500D01*
X101494605Y-91999028D01*
X101337246Y-91985260D01*
X101315961Y-91981507D01*
X101168630Y-91942030D01*
X101148318Y-91934637D01*
X101010084Y-91870177D01*
X100991366Y-91859370D01*
X100866417Y-91771880D01*
X100849859Y-91757986D01*
X100742013Y-91650140D01*
X100728119Y-91633582D01*
X100640629Y-91508633D01*
X100629822Y-91489915D01*
X100565362Y-91351681D01*
X100557969Y-91331369D01*
X100518492Y-91184038D01*
X100514739Y-91162752D01*
X100500972Y-91005393D01*
X100500500Y-90994586D01*
X100500500Y-83897648D01*
X135799500Y-83897648D01*
X135799500Y-84102351D01*
X135831522Y-84304534D01*
X135894781Y-84499223D01*
X135987715Y-84681613D01*
X136108028Y-84847213D01*
X136252786Y-84991971D01*
X136407749Y-85104556D01*
X136418390Y-85112287D01*
X136534607Y-85171503D01*
X136600776Y-85205218D01*
X136600778Y-85205218D01*
X136600781Y-85205220D01*
X136705137Y-85239127D01*
X136795465Y-85268477D01*
X136896557Y-85284488D01*
X136997648Y-85300500D01*
X136997649Y-85300500D01*
X138102351Y-85300500D01*
X138102352Y-85300500D01*
X138304534Y-85268477D01*
X138499219Y-85205220D01*
X138681610Y-85112287D01*
X138774590Y-85044732D01*
X138847213Y-84991971D01*
X138847215Y-84991968D01*
X138847219Y-84991966D01*
X138991966Y-84847219D01*
X138991968Y-84847215D01*
X138991971Y-84847213D01*
X139044732Y-84774590D01*
X139112287Y-84681610D01*
X139205220Y-84499219D01*
X139268477Y-84304534D01*
X139300500Y-84102352D01*
X139300500Y-83897648D01*
X139268477Y-83695466D01*
X139205220Y-83500781D01*
X139205218Y-83500778D01*
X139205218Y-83500776D01*
X139171503Y-83434607D01*
X139112287Y-83318390D01*
X139104556Y-83307749D01*
X138991971Y-83152786D01*
X138847213Y-83008028D01*
X138681613Y-82887715D01*
X138681612Y-82887714D01*
X138681610Y-82887713D01*
X138624653Y-82858691D01*
X138499223Y-82794781D01*
X138304534Y-82731522D01*
X138129995Y-82703878D01*
X138102352Y-82699500D01*
X136997648Y-82699500D01*
X136973329Y-82703351D01*
X136795465Y-82731522D01*
X136600776Y-82794781D01*
X136418386Y-82887715D01*
X136252786Y-83008028D01*
X136108028Y-83152786D01*
X135987715Y-83318386D01*
X135894781Y-83500776D01*
X135831522Y-83695465D01*
X135799500Y-83897648D01*
X100500500Y-83897648D01*
X100500500Y-77005413D01*
X100500972Y-76994606D01*
X100506265Y-76934108D01*
X100514739Y-76837240D01*
X100518490Y-76815966D01*
X100557969Y-76668627D01*
X100565362Y-76648318D01*
X100629823Y-76510081D01*
X100640629Y-76491366D01*
X100728119Y-76366417D01*
X100742007Y-76349865D01*
X100849865Y-76242007D01*
X100866417Y-76228119D01*
X100991366Y-76140629D01*
X101010081Y-76129823D01*
X101148320Y-76065361D01*
X101168627Y-76057969D01*
X101315966Y-76018490D01*
X101337242Y-76014739D01*
X101469885Y-76003134D01*
X101494606Y-76000972D01*
X101505413Y-76000500D01*
X101565892Y-76000500D01*
X148434108Y-76000500D01*
X148494587Y-76000500D01*
X148505394Y-76000972D01*
G37*
%TD.AperFunction*%
%TD*%
M02*
