%TF.GenerationSoftware,KiCad,Pcbnew,9.0.0*%
%TF.CreationDate,2026-05-25T00:25:35+02:00*%
%TF.ProjectId,Fast_Passive_Probe_20x,46617374-5f50-4617-9373-6976655f5072,rev?*%
%TF.SameCoordinates,Original*%
%TF.FileFunction,Copper,L1,Top*%
%TF.FilePolarity,Positive*%
%FSLAX46Y46*%
G04 Gerber Fmt 4.6, Leading zero omitted, Abs format (unit mm)*
G04 Created by KiCad (PCBNEW 9.0.0) date 2026-05-25 00:25:35*
%MOMM*%
%LPD*%
G01*
G04 APERTURE LIST*
G04 Aperture macros list*
%AMRoundRect*
0 Rectangle with rounded corners*
0 $1 Rounding radius*
0 $2 $3 $4 $5 $6 $7 $8 $9 X,Y pos of 4 corners*
0 Add a 4 corners polygon primitive as box body*
4,1,4,$2,$3,$4,$5,$6,$7,$8,$9,$2,$3,0*
0 Add four circle primitives for the rounded corners*
1,1,$1+$1,$2,$3*
1,1,$1+$1,$4,$5*
1,1,$1+$1,$6,$7*
1,1,$1+$1,$8,$9*
0 Add four rect primitives between the rounded corners*
20,1,$1+$1,$2,$3,$4,$5,0*
20,1,$1+$1,$4,$5,$6,$7,0*
20,1,$1+$1,$6,$7,$8,$9,0*
20,1,$1+$1,$8,$9,$2,$3,0*%
G04 Aperture macros list end*
%TA.AperFunction,ComponentPad*%
%ADD10O,2.500000X1.600000*%
%TD*%
%TA.AperFunction,ComponentPad*%
%ADD11O,7.000000X3.500000*%
%TD*%
%TA.AperFunction,SMDPad,CuDef*%
%ADD12RoundRect,0.250000X-1.350000X0.385000X-1.350000X-0.385000X1.350000X-0.385000X1.350000X0.385000X0*%
%TD*%
%TA.AperFunction,SMDPad,CuDef*%
%ADD13RoundRect,0.250000X-1.600000X0.425000X-1.600000X-0.425000X1.600000X-0.425000X1.600000X0.425000X0*%
%TD*%
%TA.AperFunction,SMDPad,CuDef*%
%ADD14RoundRect,0.155000X-0.212500X-0.155000X0.212500X-0.155000X0.212500X0.155000X-0.212500X0.155000X0*%
%TD*%
%TA.AperFunction,ComponentPad*%
%ADD15C,3.800000*%
%TD*%
%TA.AperFunction,SMDPad,CuDef*%
%ADD16RoundRect,0.160000X-0.197500X-0.160000X0.197500X-0.160000X0.197500X0.160000X-0.197500X0.160000X0*%
%TD*%
%TA.AperFunction,ViaPad*%
%ADD17C,0.600000*%
%TD*%
%TA.AperFunction,Conductor*%
%ADD18C,0.350000*%
%TD*%
G04 APERTURE END LIST*
D10*
%TO.P,J1,1,In*%
%TO.N,Net-(J1-In)*%
X137550000Y-84000000D03*
D11*
%TO.P,J1,2,Ext*%
%TO.N,GND*%
X145350000Y-80200000D03*
X145350000Y-87800000D03*
%TD*%
D12*
%TO.P,J2,1,In*%
%TO.N,Net-(J2-In)*%
X102100000Y-84000000D03*
D13*
%TO.P,J2,2,Ext*%
%TO.N,GND*%
X102350000Y-86825000D03*
X102350000Y-81175000D03*
%TD*%
D14*
%TO.P,C1,1*%
%TO.N,Net-(C1-Pad1)*%
X132862500Y-84000000D03*
%TO.P,C1,2*%
%TO.N,Net-(J1-In)*%
X133997500Y-84000000D03*
%TD*%
D15*
%TO.P,H3,1,1*%
%TO.N,GND*%
X107000000Y-79000000D03*
%TD*%
%TO.P,H4,1,1*%
%TO.N,GND*%
X138500000Y-89000000D03*
%TD*%
D16*
%TO.P,R1,1*%
%TO.N,Net-(J2-In)*%
X123902500Y-84000000D03*
%TO.P,R1,2*%
%TO.N,Net-(R1-Pad2)*%
X125097500Y-84000000D03*
%TD*%
%TO.P,R2,1*%
%TO.N,Net-(R1-Pad2)*%
X128402500Y-84000000D03*
%TO.P,R2,2*%
%TO.N,Net-(C1-Pad1)*%
X129597500Y-84000000D03*
%TD*%
D17*
%TO.N,GND*%
X130000000Y-90000000D03*
X130000000Y-86000000D03*
X127000000Y-76500000D03*
X112000000Y-80000000D03*
X104800000Y-81600000D03*
X132000000Y-80000000D03*
X124000000Y-88000000D03*
X133000000Y-91500000D03*
X145000000Y-76500000D03*
X116000000Y-80000000D03*
X110000000Y-86000000D03*
X104000000Y-88000000D03*
X149000000Y-85000000D03*
X149000000Y-91500000D03*
X147000000Y-91500000D03*
X123000000Y-91500000D03*
X102600000Y-80000000D03*
X101000000Y-91500000D03*
X139000000Y-76500000D03*
X127000000Y-91500000D03*
X143000000Y-76500000D03*
X101200000Y-82400000D03*
X135000000Y-91500000D03*
X138000000Y-78000000D03*
X124000000Y-80000000D03*
X118000000Y-78000000D03*
X115000000Y-91500000D03*
X128000000Y-80000000D03*
X130000000Y-82000000D03*
X102600000Y-82400000D03*
X134000000Y-82000000D03*
X141000000Y-76500000D03*
X118000000Y-86000000D03*
X114000000Y-90000000D03*
X106000000Y-82000000D03*
X111000000Y-76500000D03*
X134000000Y-90000000D03*
X136000000Y-88000000D03*
X138000000Y-86000000D03*
X134000000Y-78000000D03*
X122000000Y-82000000D03*
X147000000Y-76500000D03*
X107000000Y-76500000D03*
X109500000Y-80500000D03*
X106000000Y-90000000D03*
X145000000Y-91500000D03*
X110000000Y-82000000D03*
X114000000Y-82000000D03*
X149000000Y-76500000D03*
X110000000Y-78000000D03*
X105000000Y-76500000D03*
X126000000Y-82000000D03*
X111000000Y-91500000D03*
X122000000Y-90000000D03*
X118000000Y-82000000D03*
X109000000Y-76500000D03*
X149000000Y-81000000D03*
X102000000Y-90000000D03*
X119000000Y-91500000D03*
X140000000Y-87000000D03*
X104000000Y-85600000D03*
X117000000Y-91500000D03*
X119000000Y-76500000D03*
X133000000Y-76500000D03*
X134000000Y-86000000D03*
X101200000Y-85600000D03*
X146000000Y-86000000D03*
X101200000Y-88000000D03*
X149000000Y-89000000D03*
X129000000Y-76500000D03*
X149000000Y-83000000D03*
X123000000Y-76500000D03*
X103000000Y-78000000D03*
X126000000Y-90000000D03*
X114000000Y-86000000D03*
X115000000Y-76500000D03*
X135000000Y-76500000D03*
X117000000Y-76500000D03*
X118000000Y-90000000D03*
X120000000Y-80000000D03*
X146000000Y-78000000D03*
X101000000Y-78000000D03*
X149000000Y-79000000D03*
X101000000Y-89500000D03*
X106000000Y-86000000D03*
X140000000Y-80000000D03*
X125000000Y-91500000D03*
X128000000Y-88000000D03*
X110000000Y-90000000D03*
X132000000Y-88000000D03*
X142000000Y-90000000D03*
X142000000Y-86000000D03*
X113000000Y-76500000D03*
X109000000Y-91500000D03*
X137000000Y-91500000D03*
X102600000Y-88000000D03*
X126000000Y-78000000D03*
X121000000Y-76500000D03*
X143000000Y-91500000D03*
X103000000Y-76500000D03*
X114000000Y-78000000D03*
X104800000Y-80800000D03*
X107000000Y-91500000D03*
X125000000Y-76500000D03*
X126000000Y-86000000D03*
X116000000Y-88000000D03*
X130000000Y-78000000D03*
X104800000Y-87400000D03*
X146000000Y-82000000D03*
X137000000Y-76500000D03*
X101000000Y-76500000D03*
X102600000Y-85600000D03*
X104000000Y-80000000D03*
X136000000Y-80000000D03*
X113000000Y-91500000D03*
X104000000Y-82400000D03*
X112000000Y-88000000D03*
X129000000Y-91500000D03*
X122000000Y-78000000D03*
X101200000Y-80000000D03*
X122000000Y-86000000D03*
X142000000Y-82000000D03*
X105000000Y-91500000D03*
X136000000Y-90500000D03*
X121000000Y-91500000D03*
X131000000Y-91500000D03*
X120000000Y-88000000D03*
X103000000Y-91500000D03*
X142000000Y-78000000D03*
X141000000Y-91500000D03*
X149000000Y-87000000D03*
X108000000Y-88000000D03*
X131000000Y-76500000D03*
X104800000Y-86400000D03*
X138000000Y-82000000D03*
X139000000Y-91500000D03*
%TD*%
D18*
%TO.N,Net-(C1-Pad1)*%
X129597500Y-84000000D02*
X132862500Y-84000000D01*
%TO.N,Net-(J1-In)*%
X133997500Y-84000000D02*
X137550000Y-84000000D01*
%TO.N,Net-(J2-In)*%
X123802500Y-84000000D02*
X102000000Y-84000000D01*
%TO.N,Net-(R1-Pad2)*%
X125097500Y-84000000D02*
X128402500Y-84000000D01*
%TD*%
%TA.AperFunction,Conductor*%
%TO.N,GND*%
G36*
X148505394Y-76000972D02*
G01*
X148535721Y-76003625D01*
X148662755Y-76014739D01*
X148684035Y-76018491D01*
X148801188Y-76049882D01*
X148831369Y-76057969D01*
X148851681Y-76065362D01*
X148989915Y-76129822D01*
X149008633Y-76140629D01*
X149133582Y-76228119D01*
X149150140Y-76242013D01*
X149257986Y-76349859D01*
X149271880Y-76366417D01*
X149359370Y-76491366D01*
X149370177Y-76510084D01*
X149434637Y-76648318D01*
X149442030Y-76668630D01*
X149481507Y-76815961D01*
X149485260Y-76837246D01*
X149499028Y-76994605D01*
X149499500Y-77005413D01*
X149499500Y-90994586D01*
X149499028Y-91005393D01*
X149499028Y-91005394D01*
X149485260Y-91162753D01*
X149481507Y-91184038D01*
X149442030Y-91331369D01*
X149434637Y-91351681D01*
X149370177Y-91489915D01*
X149359370Y-91508633D01*
X149271880Y-91633582D01*
X149257986Y-91650140D01*
X149150140Y-91757986D01*
X149133582Y-91771880D01*
X149008633Y-91859370D01*
X148989915Y-91870177D01*
X148851681Y-91934637D01*
X148831369Y-91942030D01*
X148684038Y-91981507D01*
X148662753Y-91985260D01*
X148505395Y-91999028D01*
X148494587Y-91999500D01*
X101505413Y-91999500D01*
X101494605Y-91999028D01*
X101337246Y-91985260D01*
X101315961Y-91981507D01*
X101168630Y-91942030D01*
X101148318Y-91934637D01*
X101010084Y-91870177D01*
X100991366Y-91859370D01*
X100866417Y-91771880D01*
X100849859Y-91757986D01*
X100742013Y-91650140D01*
X100728119Y-91633582D01*
X100640629Y-91508633D01*
X100629822Y-91489915D01*
X100565362Y-91351681D01*
X100557969Y-91331369D01*
X100518492Y-91184038D01*
X100514739Y-91162752D01*
X100500972Y-91005393D01*
X100500500Y-90994586D01*
X100500500Y-85656016D01*
X100520185Y-85588977D01*
X100572989Y-85543222D01*
X100633087Y-85532314D01*
X100678985Y-85535500D01*
X100678988Y-85535500D01*
X103521016Y-85535500D01*
X103556459Y-85533039D01*
X103609630Y-85529349D01*
X103609636Y-85529347D01*
X103609640Y-85529347D01*
X103817176Y-85480534D01*
X103817174Y-85480534D01*
X103817185Y-85480532D01*
X104012237Y-85394409D01*
X104188142Y-85273911D01*
X104338911Y-85123142D01*
X104338914Y-85123136D01*
X104341279Y-85120290D01*
X104342761Y-85119292D01*
X104342965Y-85119089D01*
X104343004Y-85119128D01*
X104399248Y-85081286D01*
X104436682Y-85075500D01*
X123137023Y-85075500D01*
X123195475Y-85090141D01*
X123297201Y-85144515D01*
X123497106Y-85205155D01*
X123497105Y-85205155D01*
X123508113Y-85206239D01*
X123652905Y-85220500D01*
X124152094Y-85220499D01*
X124307894Y-85205155D01*
X124464005Y-85157798D01*
X124533871Y-85157175D01*
X124535963Y-85157789D01*
X124692103Y-85205154D01*
X124692105Y-85205155D01*
X124703113Y-85206239D01*
X124847905Y-85220500D01*
X125347094Y-85220499D01*
X125502894Y-85205155D01*
X125702799Y-85144515D01*
X125804524Y-85090141D01*
X125862977Y-85075500D01*
X127637023Y-85075500D01*
X127695475Y-85090141D01*
X127797201Y-85144515D01*
X127997106Y-85205155D01*
X127997105Y-85205155D01*
X128008113Y-85206239D01*
X128152905Y-85220500D01*
X128652094Y-85220499D01*
X128807894Y-85205155D01*
X128964005Y-85157798D01*
X129033871Y-85157175D01*
X129035963Y-85157789D01*
X129192103Y-85205154D01*
X129192105Y-85205155D01*
X129203113Y-85206239D01*
X129347905Y-85220500D01*
X129847094Y-85220499D01*
X130002894Y-85205155D01*
X130202799Y-85144515D01*
X130304524Y-85090141D01*
X130362977Y-85075500D01*
X132101984Y-85075500D01*
X132160436Y-85090141D01*
X132244123Y-85134873D01*
X132443086Y-85195228D01*
X132598147Y-85210500D01*
X133126852Y-85210499D01*
X133281914Y-85195228D01*
X133394005Y-85161224D01*
X133463870Y-85160600D01*
X133465921Y-85161202D01*
X133578086Y-85195228D01*
X133578085Y-85195228D01*
X133589041Y-85196306D01*
X133733147Y-85210500D01*
X134261852Y-85210499D01*
X134416914Y-85195228D01*
X134615877Y-85134873D01*
X134699563Y-85090141D01*
X134758016Y-85075500D01*
X135720676Y-85075500D01*
X135787715Y-85095185D01*
X135815684Y-85120917D01*
X135816077Y-85120573D01*
X135818757Y-85123629D01*
X135976370Y-85281242D01*
X135976376Y-85281247D01*
X136153226Y-85416948D01*
X136346274Y-85528405D01*
X136552219Y-85613710D01*
X136767537Y-85671404D01*
X136988543Y-85700500D01*
X136988550Y-85700500D01*
X138111450Y-85700500D01*
X138111457Y-85700500D01*
X138332463Y-85671404D01*
X138547781Y-85613710D01*
X138753726Y-85528405D01*
X138946774Y-85416948D01*
X139123624Y-85281247D01*
X139281247Y-85123624D01*
X139416948Y-84946774D01*
X139528405Y-84753726D01*
X139613710Y-84547781D01*
X139671404Y-84332463D01*
X139700500Y-84111457D01*
X139700500Y-83888543D01*
X139671404Y-83667537D01*
X139613710Y-83452219D01*
X139528405Y-83246274D01*
X139416948Y-83053226D01*
X139318174Y-82924500D01*
X139281248Y-82876377D01*
X139281242Y-82876370D01*
X139123629Y-82718757D01*
X139123622Y-82718751D01*
X138946782Y-82583058D01*
X138946780Y-82583057D01*
X138946774Y-82583052D01*
X138753726Y-82471595D01*
X138753722Y-82471593D01*
X138547790Y-82386293D01*
X138547783Y-82386291D01*
X138547781Y-82386290D01*
X138332463Y-82328596D01*
X138332457Y-82328595D01*
X138332452Y-82328594D01*
X138111466Y-82299501D01*
X138111463Y-82299500D01*
X138111457Y-82299500D01*
X136988543Y-82299500D01*
X136988537Y-82299500D01*
X136988533Y-82299501D01*
X136767547Y-82328594D01*
X136767540Y-82328595D01*
X136767537Y-82328596D01*
X136710112Y-82343983D01*
X136552219Y-82386290D01*
X136552209Y-82386293D01*
X136346277Y-82471593D01*
X136346273Y-82471595D01*
X136153226Y-82583052D01*
X136153217Y-82583058D01*
X135976377Y-82718751D01*
X135976370Y-82718757D01*
X135818757Y-82876370D01*
X135816077Y-82879427D01*
X135815286Y-82878733D01*
X135762632Y-82917186D01*
X135720676Y-82924500D01*
X134758016Y-82924500D01*
X134699563Y-82909858D01*
X134643160Y-82879710D01*
X134615880Y-82865128D01*
X134416911Y-82804771D01*
X134316112Y-82794844D01*
X134261853Y-82789500D01*
X134261849Y-82789500D01*
X133733151Y-82789500D01*
X133578087Y-82804771D01*
X133465994Y-82838774D01*
X133396128Y-82839397D01*
X133394005Y-82838774D01*
X133281912Y-82804771D01*
X133177884Y-82794526D01*
X133126853Y-82789500D01*
X133126849Y-82789500D01*
X132598151Y-82789500D01*
X132443088Y-82804771D01*
X132244119Y-82865128D01*
X132182493Y-82898068D01*
X132160436Y-82909858D01*
X132101984Y-82924500D01*
X130362977Y-82924500D01*
X130304524Y-82909858D01*
X130202799Y-82855485D01*
X130002894Y-82794845D01*
X130002892Y-82794844D01*
X130002894Y-82794844D01*
X129891124Y-82783836D01*
X129847095Y-82779500D01*
X129847091Y-82779500D01*
X129347909Y-82779500D01*
X129192107Y-82794844D01*
X129035994Y-82842200D01*
X128966128Y-82842823D01*
X128964005Y-82842200D01*
X128807892Y-82794844D01*
X128703370Y-82784550D01*
X128652095Y-82779500D01*
X128652091Y-82779500D01*
X128152909Y-82779500D01*
X127997108Y-82794844D01*
X127797198Y-82855486D01*
X127751879Y-82879710D01*
X127695475Y-82909858D01*
X127637023Y-82924500D01*
X125862977Y-82924500D01*
X125804524Y-82909858D01*
X125702799Y-82855485D01*
X125502894Y-82794845D01*
X125502892Y-82794844D01*
X125502894Y-82794844D01*
X125391124Y-82783836D01*
X125347095Y-82779500D01*
X125347091Y-82779500D01*
X124847909Y-82779500D01*
X124692107Y-82794844D01*
X124535994Y-82842200D01*
X124466128Y-82842823D01*
X124464005Y-82842200D01*
X124307892Y-82794844D01*
X124203370Y-82784550D01*
X124152095Y-82779500D01*
X124152091Y-82779500D01*
X123652909Y-82779500D01*
X123497108Y-82794844D01*
X123297198Y-82855486D01*
X123251879Y-82879710D01*
X123195475Y-82909858D01*
X123137023Y-82924500D01*
X104436682Y-82924500D01*
X104369643Y-82904815D01*
X104341279Y-82879710D01*
X104338906Y-82876852D01*
X104188147Y-82726093D01*
X104188141Y-82726088D01*
X104012238Y-82605592D01*
X104012239Y-82605592D01*
X104012237Y-82605591D01*
X103817185Y-82519468D01*
X103817183Y-82519467D01*
X103817182Y-82519467D01*
X103817176Y-82519465D01*
X103609640Y-82470652D01*
X103609624Y-82470650D01*
X103521016Y-82464500D01*
X103521012Y-82464500D01*
X100678988Y-82464500D01*
X100645656Y-82466813D01*
X100633084Y-82467686D01*
X100564843Y-82452689D01*
X100515542Y-82403179D01*
X100500500Y-82343983D01*
X100500500Y-77005413D01*
X100500972Y-76994606D01*
X100506265Y-76934108D01*
X100514739Y-76837240D01*
X100518490Y-76815966D01*
X100557969Y-76668627D01*
X100565362Y-76648318D01*
X100629823Y-76510081D01*
X100640629Y-76491366D01*
X100728119Y-76366417D01*
X100742007Y-76349865D01*
X100849865Y-76242007D01*
X100866417Y-76228119D01*
X100991366Y-76140629D01*
X101010081Y-76129823D01*
X101148320Y-76065361D01*
X101168627Y-76057969D01*
X101315966Y-76018490D01*
X101337242Y-76014739D01*
X101469885Y-76003134D01*
X101494606Y-76000972D01*
X101505413Y-76000500D01*
X101565892Y-76000500D01*
X148434108Y-76000500D01*
X148494587Y-76000500D01*
X148505394Y-76000972D01*
G37*
%TD.AperFunction*%
%TD*%
M02*
